<?xml version="1.0" standalone="no"?>
<!DOCTYPE svg PUBLIC "-//W3C//DTD SVG 20010904//EN"
 "http://www.w3.org/TR/2001/REC-SVG-20010904/DTD/svg10.dtd">
<svg version="1.0" xmlns="http://www.w3.org/2000/svg"
 width="360.000000pt" height="640.000000pt" viewBox="0 0 360.000000 640.000000"
 preserveAspectRatio="xMidYMid meet">

<g transform="translate(0.000000,640.000000) scale(0.100000,-0.100000)"
fill="#000000" stroke="none">
<path d="M1810 4379 c-155 -6 -228 -20 -359 -68 -349 -127 -622 -404 -756
-765 -38 -105 -39 -113 -7 -124 29 -10 29 -10 52 62 27 84 86 206 144 296 57
87 194 231 287 300 275 205 639 281 977 204 116 -27 251 -82 344 -140 l38 -24
-28 -40 c-31 -45 -43 -48 -82 -20 -132 94 -436 164 -625 144 l-80 -9 0 -35 0
-35 58 3 57 4 0 -60 0 -59 -74 -6 c-157 -14 -344 -101 -473 -221 -78 -73 -156
-167 -167 -202 -5 -16 0 -23 19 -32 34 -16 32 -16 50 19 25 47 163 186 229
232 78 52 196 103 285 122 91 19 265 19 354 0 194 -41 395 -176 502 -338 34
-52 39 -55 61 -45 33 15 30 30 -15 96 -66 96 -130 160 -220 220 -140 94 -295
150 -431 155 l-60 2 0 59 0 59 83 -6 c220 -16 448 -122 611 -283 136 -135 233
-303 283 -489 23 -88 26 -118 26 -255 -1 -134 -4 -169 -26 -253 -48 -183 -154
-359 -296 -492 -29 -28 -66 -58 -81 -68 l-28 -18 -32 47 -31 47 38 31 c55 45
142 138 149 159 6 20 -12 47 -31 47 -7 0 -46 -34 -86 -76 -165 -170 -361 -253
-595 -254 -228 0 -438 92 -602 264 -66 68 -94 80 -112 47 -22 -42 206 -245
343 -305 258 -114 547 -107 785 19 l63 33 29 -51 c17 -29 30 -55 30 -58 0 -4
-14 -9 -30 -13 -17 -3 -33 -13 -37 -21 -6 -18 12 -65 25 -65 24 0 199 129 264
193 378 378 434 979 133 1422 -52 78 -204 237 -234 247 -12 3 -9 15 15 56 l30
52 41 -35 41 -35 17 26 c9 14 14 32 11 40 -8 22 -132 109 -226 158 -100 52
-233 99 -345 120 -112 21 -141 22 -305 15z"/>
<path d="M1380 4084 c-155 -83 -275 -188 -374 -328 -111 -156 -184 -345 -202
-518 l-7 -66 -58 -4 -59 -3 0 35 c0 19 4 49 9 67 10 36 -1 53 -35 53 -18 0
-22 -7 -28 -52 -11 -97 -6 -293 10 -389 45 -266 169 -505 359 -694 242 -241
542 -365 884 -365 209 0 360 35 546 125 454 220 732 689 711 1200 -9 221 -42
354 -136 540 -30 61 -80 146 -110 188 -45 63 -59 77 -79 75 -13 -2 -29 -10
-34 -20 -9 -13 -3 -25 27 -58 125 -138 224 -364 262 -595 17 -107 15 -274 -6
-390 -17 -96 -69 -250 -115 -339 -58 -115 -112 -185 -229 -301 -179 -178 -351
-272 -606 -332 -114 -27 -365 -24 -485 5 -121 30 -166 46 -260 92 -245 118
-443 315 -564 557 -69 139 -121 340 -121 470 l0 64 58 -3 57 -3 2 -50 c22
-453 318 -846 748 -990 86 -29 242 -55 330 -55 67 0 237 24 296 41 35 11 38
14 32 43 -3 17 -7 32 -8 34 -1 2 -48 -6 -103 -18 -120 -24 -295 -27 -404 -6
-407 79 -738 411 -815 820 -21 113 -13 341 16 451 58 217 203 432 384 566 64
48 198 124 246 140 9 3 10 11 2 32 -15 38 -41 35 -141 -19z"/>
</g>
</svg>
